<?xml version="1.0" encoding="UTF-8" standalone="no"?>
<!-- Created with Inkscape (http://www.inkscape.org/) -->

<svg
   width="48"
   height="48"
   viewBox="0 0 12.7 12.7"
   version="1.1"
   id="svg5"
   xml:space="preserve"
   inkscape:version="1.2.2 (b0a8486541, 2022-12-01)"
   sodipodi:docname="logo.svg"
   xmlns:inkscape="http://www.inkscape.org/namespaces/inkscape"
   xmlns:sodipodi="http://sodipodi.sourceforge.net/DTD/sodipodi-0.dtd"
   xmlns="http://www.w3.org/2000/svg"
   xmlns:svg="http://www.w3.org/2000/svg"><sodipodi:namedview
     id="namedview7"
     pagecolor="#ffffff"
     bordercolor="#000000"
     borderopacity="0.25"
     inkscape:showpageshadow="2"
     inkscape:pageopacity="0.0"
     inkscape:pagecheckerboard="0"
     inkscape:deskcolor="#d1d1d1"
     inkscape:document-units="mm"
     showgrid="false"
     inkscape:zoom="15.622219"
     inkscape:cx="33.221913"
     inkscape:cy="23.42817"
     inkscape:window-width="2560"
     inkscape:window-height="1048"
     inkscape:window-x="0"
     inkscape:window-y="0"
     inkscape:window-maximized="1"
     inkscape:current-layer="layer1" /><defs
     id="defs2" /><g
     inkscape:label="Layer 1"
     inkscape:groupmode="layer"
     id="layer1"><g
       id="g2978"
       transform="translate(-0.12755187,0.17090125)"><path
         id="path356"
         style="fill:#18802b;fill-opacity:1;stroke-width:1;stroke-opacity:0.999961"
         d="M 10.728544,0.69401449 4.0648682,5.6192952 C 5.5212007,6.2556407 5.6256238,6.8725795 6.35,7.575765 6.7121881,7.9273576 7.5631756,8.8500623 8.5912069,9.0154704 9.6880805,9.1919549 10.733712,8.5328125 10.733712,8.5328125 v -0.0093 H 9.1937541 V 8.3395426 H 9.8453939 V 7.5923014 H 9.1937541 V 7.4083333 H 10.733195 L 10.732678,7.009908 H 9.1937541 V 6.1949707 h 0.1705322 v 0.631486 H 9.9099894 V 6.2342448 h 0.1700156 v 0.5922119 h 0.652673 L 10.732161,5.9500244 H 9.1937541 V 5.5479818 c 0,-0.1810886 0.036746,-0.3147136 0.1100708,-0.4004924 0.071886,-0.08714 0.1809802,-0.1307414 0.3276286,-0.1307414 0.081951,0 0.1505216,0.014298 0.2051554,0.042892 0.054634,0.028593 0.098191,0.065139 0.1312581,0.1100708 0.03163,0.04357 0.057273,0.089993 0.075964,0.1390096 l 0.687297,-0.3984253 z m 0.0031,4.43022051 -0.63407,0.3519165 v 0.2899048 h 0.63407 z M 9.6216339,5.206917 C 9.5307369,5.210267 9.465902,5.239088 9.4268138,5.2927 9.3836818,5.349886 9.3622178,5.4379818 9.3622178,5.5578001 v 0.208256 H 9.9337606 V 5.5479818 c 0,-0.1184565 -0.024497,-0.204953 -0.073381,-0.2594157 -0.05032,-0.054463 -0.1238138,-0.081649 -0.2201416,-0.081649 -0.00629,0 -0.012544,-2.234e-4 -0.018603,0 z m 0.3937741,2.3853841 v 0.7472412 h 0.718303 l -5.17e-4,-0.7472412 z" /><path
         id="path1725"
         style="fill:#b1b2b4;fill-opacity:1;stroke-width:1;stroke-opacity:0.999961"
         d="m 3.250464,6.2934517 c -0.025312,-3.32e-5 -0.038757,5.168e-4 -0.038757,5.168e-4 l -1.21698,0.9467122 c 0,0 1.6833513,2.2506901 3.9759847,3.3248613 2.3443554,1.098404 4.7304613,1.098641 4.7304613,1.098641 l 0.0041,-2.3424922 -0.01395,0.0088 C 10.554127,9.4114238 9.4127757,10.042629 8.021749,9.5206448 6.5379876,8.9638614 5.9122715,7.4304704 4.9919598,6.8417387 4.1866871,6.3265984 3.427649,6.2936839 3.250464,6.2934517 Z" /></g></g></svg>
